<svg width="81" height="80" viewBox="0 0 81 80" fill="none" xmlns="http://www.w3.org/2000/svg">
<path fill-rule="evenodd" clip-rule="evenodd" d="M59.9488 16.8027H20.4058L20.3972 16.8185L20.7336 16.818L29.2438 28.9753L13.7318 28.9634L13.4287 29.5157L40.1773 63.0334L66.9271 29.5157L59.9488 16.8027Z" fill="#00E3D0"/>
<path d="M28.8892 7.34644H15.5557L0 26.9385H22.2225L28.8892 7.34644Z" fill="#EE5C71"/>
<path d="M80.0015 26.9385L64.4458 7.34644H51.1123L57.779 26.9385H80.0015Z" fill="#FF0032"/>
<path d="M57.7799 26.9386H80.0024L40.002 72.6533L57.7799 26.9386Z" fill="#B90024"/>
<path d="M22.2225 26.9386H0L40.0004 72.6533L22.2225 26.9386Z" fill="#D60321"/>
<path d="M28.8884 7.34644L22.2217 26.9385H57.7776L51.1109 7.34644H28.8884Z" fill="#FD4661"/>
<path d="M39.9997 72.6533L22.2217 26.9386H57.7776L39.9997 72.6533Z" fill="#FF0025"/>
<path fill-rule="evenodd" clip-rule="evenodd" d="M48.1409 27.7809C48.1409 27.7809 52.0947 27.0805 54.5067 24.7682C56.921 22.4553 57.7919 18.5333 57.7919 18.5333C57.7919 18.5333 58.4316 22.4219 60.7102 24.8021C63.0524 27.2493 67.039 28.1914 67.039 28.1914C67.039 28.1914 63.0512 28.9261 60.6219 31.2544C58.2243 33.5491 57.3885 37.4413 57.3885 37.4413C57.3996 37.4481 56.8422 33.6264 54.3719 31.0694C52.1506 28.7693 48.1409 27.7809 48.1409 27.7809Z" fill="white"/>
<path fill-rule="evenodd" clip-rule="evenodd" d="M18.6445 14.5601C18.6445 14.5601 20.9223 14.0347 22.2558 12.619C23.5906 11.2028 23.9802 8.89781 23.9802 8.89781C23.9802 8.89781 24.4678 11.1382 25.8633 12.453C27.2977 13.8049 29.6434 14.233 29.6434 14.233C29.6434 14.233 27.3469 14.7792 26.0038 16.2048C24.6782 17.6099 24.3081 19.8965 24.3081 19.8965C24.3147 19.9001 23.877 17.6962 22.3648 16.2844C21.005 15.0143 18.6445 14.5601 18.6445 14.5601Z" fill="white"/>
</svg>
