<svg width="80" height="80" viewBox="0 0 80 80" fill="none" xmlns="http://www.w3.org/2000/svg">
<path d="M71.25 16.875H8.75C5.98858 16.875 3.75 19.1136 3.75 21.875V59.375C3.75 62.1364 5.98858 64.375 8.75 64.375H71.25C74.0114 64.375 76.25 62.1364 76.25 59.375V21.875C76.25 19.1136 74.0114 16.875 71.25 16.875Z" fill="#FF0025"/>
<path d="M8.75 53.75V16.875C7.42392 16.875 6.15215 17.4018 5.21447 18.3395C4.27678 19.2771 3.75 20.5489 3.75 21.875V59.375C3.75 60.7011 4.27678 61.9729 5.21447 62.9105C6.15215 63.8482 7.42392 64.375 8.75 64.375H71.25C72.5761 64.375 73.8479 63.8482 74.7855 62.9105C75.7232 61.9729 76.25 60.7011 76.25 59.375V58.75H13.75C12.4239 58.75 11.1521 58.2232 10.2145 57.2855C9.27678 56.3479 8.75 55.0761 8.75 53.75Z" fill="#B90024"/>
<path d="M29.4 23H15.6C13.0595 23 11 25.0147 11 27.5V36.5C11 38.9853 13.0595 41 15.6 41H29.4C31.9405 41 34 38.9853 34 36.5V27.5C34 25.0147 31.9405 23 29.4 23Z" fill="url(#paint0_linear_1052_81)"/>
<path d="M21.35 35.375C20.13 35.375 18.96 34.9009 18.0973 34.057C17.2346 33.2131 16.75 32.0685 16.75 30.875V23H15.6C14.38 23 13.21 23.4741 12.3473 24.318C11.4846 25.1619 11 26.3065 11 27.5V36.5C11 37.6935 11.4846 38.8381 12.3473 39.682C13.21 40.5259 14.38 41 15.6 41H29.4C30.62 41 31.79 40.5259 32.6527 39.682C33.5154 38.8381 34 37.6935 34 36.5V35.375H21.35Z" fill="#F0AF4C"/>
<path d="M12.25 48.5H49.75C50.0815 48.5 50.3995 48.3683 50.6339 48.1339C50.8683 47.8995 51 47.5815 51 47.25C51 46.9185 50.8683 46.6005 50.6339 46.3661C50.3995 46.1317 50.0815 46 49.75 46H12.25C11.9185 46 11.6005 46.1317 11.3661 46.3661C11.1317 46.6005 11 46.9185 11 47.25C11 47.5815 11.1317 47.8995 11.3661 48.1339C11.6005 48.3683 11.9185 48.5 12.25 48.5ZM49.75 51H12.25C11.9185 51 11.6005 51.1317 11.3661 51.3661C11.1317 51.6005 11 51.9185 11 52.25C11 52.5815 11.1317 52.8995 11.3661 53.1339C11.6005 53.3683 11.9185 53.5 12.25 53.5H49.75C50.0815 53.5 50.3995 53.3683 50.6339 53.1339C50.8683 52.8995 51 52.5815 51 52.25C51 51.9185 50.8683 51.6005 50.6339 51.3661C50.3995 51.1317 50.0815 51 49.75 51Z" fill="#FD4661"/>
<path d="M52.25 30.5H69.75C70.0815 30.5 70.3995 30.3683 70.6339 30.1339C70.8683 29.8995 71 29.5815 71 29.25C71 28.9185 70.8683 28.6005 70.6339 28.3661C70.3995 28.1317 70.0815 28 69.75 28H52.25C51.9185 28 51.6005 28.1317 51.3661 28.3661C51.1317 28.6005 51 28.9185 51 29.25C51 29.5815 51.1317 29.8995 51.3661 30.1339C51.6005 30.3683 51.9185 30.5 52.25 30.5ZM69.75 33H52.25C51.9185 33 51.6005 33.1317 51.3661 33.3661C51.1317 33.6005 51 33.9185 51 34.25C51 34.5815 51.1317 34.8995 51.3661 35.1339C51.6005 35.3683 51.9185 35.5 52.25 35.5H69.75C70.0815 35.5 70.3995 35.3683 70.6339 35.1339C70.8683 34.8995 71 34.5815 71 34.25C71 33.9185 70.8683 33.6005 70.6339 33.3661C70.3995 33.1317 70.0815 33 69.75 33Z" fill="#FD4661"/>
<path d="M18.9585 35L17.0139 31.6807H16.7225V35H14V26H18.2919C19.0787 26 19.7455 26.1255 20.2922 26.3764C20.8389 26.6274 21.2509 26.972 21.528 27.4105C21.8085 27.8587 21.9523 28.3681 21.9443 28.8851C21.9443 29.4979 21.7615 30.0361 21.3959 30.4998C21.0302 30.9634 20.4955 31.2932 19.7916 31.4893L22 35H18.9585ZM16.721 29.9703H18.0682C18.438 29.9703 18.7155 29.8895 18.9007 29.7278C19.086 29.5661 19.1786 29.3321 19.1786 29.0257C19.1786 28.7365 19.0837 28.5088 18.894 28.3427C18.7042 28.1765 18.4288 28.0935 18.0676 28.0935H16.7225L16.721 29.9703Z" fill="white"/>
<path d="M26.485 27.3028C26.8589 27.1011 27.2994 27.0002 27.8066 27.0002C28.3814 26.9941 28.9455 27.1544 29.4288 27.4611C29.914 27.768 30.2975 28.2066 30.5793 28.7768C30.8611 29.347 31.0013 30.0136 31 30.7767C31 31.5398 30.8598 32.2086 30.5793 32.783C30.2989 33.3575 29.9154 33.7984 29.4288 34.1056C28.9454 34.4122 28.3814 34.5722 27.8066 34.5661C27.2994 34.5661 26.861 34.4652 26.4915 34.2634C26.1327 34.0714 25.8312 33.7901 25.6171 33.4475V38H23V27.0923H25.6171V28.1187C25.8252 27.7736 26.1254 27.4914 26.485 27.3028ZM27.9472 29.6518C27.8211 29.5242 27.6703 29.423 27.5038 29.354C27.3372 29.2851 27.1583 29.2499 26.9776 29.2505C26.797 29.2511 26.6183 29.2875 26.4522 29.3575C26.2861 29.4276 26.136 29.5298 26.0108 29.6582C25.7484 29.9303 25.6171 30.3031 25.6171 30.7767C25.6171 31.2595 25.7484 31.6366 26.0108 31.908C26.1357 32.0375 26.2861 32.1405 26.4529 32.2107C26.6196 32.2809 26.7991 32.3168 26.9804 32.3162C27.1617 32.3156 27.3409 32.2785 27.5072 32.2072C27.6734 32.1359 27.8231 32.0319 27.9472 31.9016C28.2093 31.6249 28.3405 31.2499 28.3408 30.7767C28.3395 30.2946 28.2083 29.9196 27.9472 29.6518Z" fill="white"/>
<path fill-rule="evenodd" clip-rule="evenodd" d="M63.1893 26.6489C63.1893 26.6489 65.9191 26.1653 67.5845 24.5688C69.2514 22.9719 69.8527 20.264 69.8527 20.264C69.8527 20.264 70.2943 22.9488 71.8676 24.5922C73.4847 26.2818 76.2371 26.9323 76.2371 26.9323C76.2371 26.9323 73.4838 27.4395 71.8066 29.0471C70.1512 30.6314 69.5742 33.3187 69.5742 33.3187C69.5818 33.3233 69.197 30.6847 67.4914 28.9193C65.9577 27.3312 63.1893 26.6489 63.1893 26.6489Z" fill="white"/>
<path fill-rule="evenodd" clip-rule="evenodd" d="M5.09851 54.4829C5.09851 54.4829 7.82833 53.9993 9.49368 52.4028C11.1606 50.8059 11.7618 48.098 11.7618 48.098C11.7618 48.098 12.2035 50.7828 13.7768 52.4262C15.3938 54.1158 18.1463 54.7663 18.1463 54.7663C18.1463 54.7663 15.393 55.2735 13.7157 56.8811C12.0604 58.4654 11.4834 61.1527 11.4834 61.1527C11.491 61.1573 11.1062 58.5187 9.4006 56.7533C7.86692 55.1652 5.09851 54.4829 5.09851 54.4829Z" fill="white"/>
<defs>
<linearGradient id="paint0_linear_1052_81" x1="19.5" y1="40.2174" x2="25.7655" y2="23.3628" gradientUnits="userSpaceOnUse">
<stop stop-color="#FDA22B"/>
<stop offset="1" stop-color="#FDDB2B"/>
</linearGradient>
</defs>
</svg>
