<?xml version="1.0" encoding="utf-8"?>
<!-- Generator: Adobe Illustrator 24.0.0, SVG Export Plug-In . SVG Version: 6.00 Build 0)  -->
<svg version="1.1" id="Layer_1" xmlns="http://www.w3.org/2000/svg" xmlns:xlink="http://www.w3.org/1999/xlink" x="0px" y="0px"
	 viewBox="0 0 34 34" style="enable-background:new 0 0 34 34;" xml:space="preserve">
<style type="text/css">
	.st0{stroke:#000000;stroke-width:0.5;}
</style>
<path class="st0" d="M15,5.1v4.2c0,0.9,0.7,1.8,1.6,1.8c0.9,0,1.6-0.8,1.6-1.8V5.1c0-0.9-0.7-1.8-1.6-1.8C15.6,3.3,15,4.1,15,5.1z"
	/>
<path class="st0" d="M24.1,7.5l-2.8,2.8c-0.7,0.7-0.7,1.7,0,2.4c0.7,0.7,1.7,0.7,2.4,0l2.8-2.8c0.7-0.7,0.7-1.7,0-2.4
	S24.7,6.9,24.1,7.5z"/>
<path class="st0" d="M28.1,15.9h-3.4c-0.9,0-1.7,0.7-1.7,1.6c0,0.9,0.8,1.6,1.7,1.6h3.4c0.9,0,1.7-0.7,1.7-1.6
	C29.8,16.6,29,15.9,28.1,15.9z"/>
<path class="st0" d="M26,23.9l-2.3-2.3c-0.7-0.7-1.7-0.7-2.4,0s-0.7,1.7,0,2.4l2.3,2.3c0.7,0.7,1.7,0.7,2.4,0
	C26.6,25.7,26.6,24.6,26,23.9z"/>
<path class="st0" d="M18.1,27.9v-3c0-1-0.7-1.9-1.6-1.9c-0.9,0-1.6,0.9-1.6,1.9v3c0,1,0.7,1.9,1.6,1.9
	C17.5,29.8,18.1,28.9,18.1,27.9z"/>
<path class="st0" d="M10.5,25.9l1.9-1.9c0.7-0.7,0.7-1.7,0-2.4c-0.7-0.7-1.7-0.7-2.4,0l-1.9,1.9c-0.7,0.7-0.7,1.7,0,2.4
	C8.8,26.5,9.9,26.5,10.5,25.9z"/>
<path class="st0" d="M7,19h2.2c1,0,1.8-0.7,1.8-1.6c0-0.9-0.9-1.6-1.8-1.6H7c-1,0-1.8,0.7-1.8,1.6C5.1,18.4,6,19,7,19z"/>
</svg>
