<?xml version="1.0" encoding="utf-8"?>
<!-- Generator: Adobe Illustrator 24.0.0, SVG Export Plug-In . SVG Version: 6.00 Build 0)  -->
<svg version="1.1" id="Layer_1" xmlns="http://www.w3.org/2000/svg" xmlns:xlink="http://www.w3.org/1999/xlink" x="0px" y="0px"
	 viewBox="0 0 24 30" style="enable-background:new 0 0 24 30;" xml:space="preserve">
<path d="M13.4,17.8H7.7c-0.4,0-0.7,0.1-1,0.4c-0.3,0.3-0.4,0.6-0.4,1c0,0.4,0.1,0.7,0.4,1c0.3,0.3,0.6,0.4,1,0.4h5.7
	c0.4,0,0.7-0.1,1-0.4c0.3-0.3,0.4-0.6,0.4-1c0-0.4-0.1-0.7-0.4-1C14.2,18,13.8,17.8,13.4,17.8z M19.1,3.7h-1.7
	c-0.3-0.8-0.8-1.5-1.5-2.1c-0.7-0.5-1.6-0.8-2.4-0.8h-2.8c-0.9,0-1.7,0.3-2.4,0.8C7.4,2.1,6.9,2.8,6.6,3.7H4.9c-1.1,0-2.2,0.4-3,1.2
	s-1.2,1.9-1.2,3v17c0,1.1,0.4,2.2,1.2,3c0.8,0.8,1.9,1.2,3,1.2h14.2c1.1,0,2.2-0.4,3-1.2c0.8-0.8,1.2-1.9,1.2-3v-17
	c0-1.1-0.4-2.2-1.2-3C21.3,4.1,20.2,3.7,19.1,3.7z M9.2,5.1c0-0.4,0.1-0.7,0.4-1c0.3-0.3,0.6-0.4,1-0.4h2.8c0.4,0,0.7,0.1,1,0.4
	c0.3,0.3,0.4,0.6,0.4,1v1.4H9.2V5.1z M20.5,24.9c0,0.4-0.1,0.7-0.4,1c-0.3,0.3-0.6,0.4-1,0.4H4.9c-0.4,0-0.7-0.1-1-0.4
	c-0.3-0.3-0.4-0.6-0.4-1v-17c0-0.4,0.1-0.7,0.4-1c0.3-0.3,0.6-0.4,1-0.4h1.4v1.4c0,0.4,0.1,0.7,0.4,1c0.3,0.3,0.6,0.4,1,0.4h8.5
	c0.4,0,0.7-0.1,1-0.4c0.3-0.3,0.4-0.6,0.4-1V6.5h1.4c0.4,0,0.7,0.1,1,0.4c0.3,0.3,0.4,0.6,0.4,1V24.9z M16.2,12.2H7.7
	c-0.4,0-0.7,0.1-1,0.4c-0.3,0.3-0.4,0.6-0.4,1s0.1,0.7,0.4,1C7,14.9,7.4,15,7.7,15h8.5c0.4,0,0.7-0.1,1-0.4c0.3-0.3,0.4-0.6,0.4-1
	s-0.1-0.7-0.4-1C17,12.3,16.6,12.2,16.2,12.2z"/>
</svg>
