<?xml version="1.0" encoding="utf-8"?>
<!-- Generator: Adobe Illustrator 24.0.0, SVG Export Plug-In . SVG Version: 6.00 Build 0)  -->
<svg version="1.1" id="Layer_1" xmlns="http://www.w3.org/2000/svg" xmlns:xlink="http://www.w3.org/1999/xlink" x="0px" y="0px"
	 viewBox="0 0 23 28" style="enable-background:new 0 0 23 28;" xml:space="preserve">
<path d="M19,8.6l3.4-4.6c0.1-0.2,0.2-0.4,0.3-0.7c0-0.2,0-0.5-0.1-0.7c-0.1-0.2-0.3-0.4-0.5-0.5c-0.2-0.1-0.4-0.2-0.7-0.2H5.5
	c0-0.4-0.1-0.7-0.4-0.9C4.9,0.7,4.6,0.6,4.2,0.6S3.5,0.7,3.3,1C3,1.2,2.9,1.6,2.9,1.9v22.8H1.6c-0.3,0-0.7,0.1-0.9,0.4
	c-0.2,0.3-0.4,0.6-0.4,0.9c0,0.4,0.1,0.7,0.4,0.9c0.2,0.3,0.6,0.4,0.9,0.4h5.3c0.3,0,0.7-0.1,0.9-0.4c0.2-0.3,0.4-0.6,0.4-0.9
	c0-0.4-0.1-0.7-0.4-0.9s-0.6-0.4-0.9-0.4H5.5v-9.4h15.8c0.2,0,0.5-0.1,0.7-0.2c0.2-0.1,0.4-0.3,0.5-0.5c0.1-0.2,0.2-0.5,0.1-0.7
	c0-0.2-0.1-0.5-0.3-0.7L19,8.6z M16.3,9.4l2.4,3.2H5.5V4.6h13.2l-2.4,3.2c-0.2,0.2-0.3,0.5-0.3,0.8C16.1,8.9,16.1,9.2,16.3,9.4z"/>
</svg>
