<svg width="24" height="30" viewBox="0 0 24 30" fill="none" xmlns="http://www.w3.org/2000/svg">
<path d="M13.4166 17.8335H7.74996C7.37424 17.8335 7.0139 17.9828 6.74822 18.2484C6.48255 18.5141 6.33329 18.8744 6.33329 19.2502C6.33329 19.6259 6.48255 19.9862 6.74822 20.2519C7.0139 20.5176 7.37424 20.6668 7.74996 20.6668H13.4166C13.7923 20.6668 14.1527 20.5176 14.4184 20.2519C14.684 19.9862 14.8333 19.6259 14.8333 19.2502C14.8333 18.8744 14.684 18.5141 14.4184 18.2484C14.1527 17.9828 13.7923 17.8335 13.4166 17.8335ZM19.0833 3.66683H17.4116C17.1193 2.84013 16.5785 2.12408 15.8633 1.61683C15.1481 1.10957 14.2935 0.83596 13.4166 0.833496H10.5833C9.70645 0.83596 8.85184 1.10957 8.13662 1.61683C7.42139 2.12408 6.88057 2.84013 6.58829 3.66683H4.91663C3.78946 3.66683 2.70845 4.1146 1.91142 4.91163C1.11439 5.70866 0.666626 6.78966 0.666626 7.91683V24.9168C0.666626 26.044 1.11439 27.125 1.91142 27.922C2.70845 28.7191 3.78946 29.1668 4.91663 29.1668H19.0833C20.2105 29.1668 21.2915 28.7191 22.0885 27.922C22.8855 27.125 23.3333 26.044 23.3333 24.9168V7.91683C23.3333 6.78966 22.8855 5.70866 22.0885 4.91163C21.2915 4.1146 20.2105 3.66683 19.0833 3.66683ZM9.16663 5.0835C9.16663 4.70777 9.31588 4.34744 9.58156 4.08176C9.84723 3.81609 10.2076 3.66683 10.5833 3.66683H13.4166C13.7923 3.66683 14.1527 3.81609 14.4184 4.08176C14.684 4.34744 14.8333 4.70777 14.8333 5.0835V6.50016H9.16663V5.0835ZM20.5 24.9168C20.5 25.2926 20.3507 25.6529 20.085 25.9186C19.8193 26.1842 19.459 26.3335 19.0833 26.3335H4.91663C4.5409 26.3335 4.18057 26.1842 3.91489 25.9186C3.64921 25.6529 3.49996 25.2926 3.49996 24.9168V7.91683C3.49996 7.54111 3.64921 7.18077 3.91489 6.9151C4.18057 6.64942 4.5409 6.50016 4.91663 6.50016H6.33329V7.91683C6.33329 8.29255 6.48255 8.65289 6.74822 8.91856C7.0139 9.18424 7.37424 9.3335 7.74996 9.3335H16.25C16.6257 9.3335 16.986 9.18424 17.2517 8.91856C17.5174 8.65289 17.6666 8.29255 17.6666 7.91683V6.50016H19.0833C19.459 6.50016 19.8193 6.64942 20.085 6.9151C20.3507 7.18077 20.5 7.54111 20.5 7.91683V24.9168ZM16.25 12.1668H7.74996C7.37424 12.1668 7.0139 12.3161 6.74822 12.5818C6.48255 12.8474 6.33329 13.2078 6.33329 13.5835C6.33329 13.9592 6.48255 14.3196 6.74822 14.5852C7.0139 14.8509 7.37424 15.0002 7.74996 15.0002H16.25C16.6257 15.0002 16.986 14.8509 17.2517 14.5852C17.5174 14.3196 17.6666 13.9592 17.6666 13.5835C17.6666 13.2078 17.5174 12.8474 17.2517 12.5818C16.986 12.3161 16.6257 12.1668 16.25 12.1668Z" fill="#FF0025"/>
</svg>
