<svg width="34" height="34" viewBox="0 0 34 34" fill="none" xmlns="http://www.w3.org/2000/svg">
<path d="M14.9606 5.07992V9.23617C14.9606 10.1756 15.6483 10.987 16.5527 10.987C17.457 10.987 18.1448 10.1756 18.1448 9.23617V5.07992C18.1448 4.14052 17.457 3.3291 16.5527 3.3291C15.6483 3.3291 14.9606 4.14052 14.9606 5.07992Z" fill="#FF0025" stroke="#FF0025" stroke-width="0.5"/>
<path d="M24.0681 7.54868L21.2572 10.3596C20.5994 11.0174 20.5995 12.0854 21.2574 12.7433C21.9153 13.4012 22.9833 13.4014 23.6412 12.7435L26.4521 9.93265C27.1099 9.27477 27.1098 8.20679 26.4519 7.54888C25.794 6.89097 24.726 6.89081 24.0681 7.54868Z" fill="#FF0025" stroke="#FF0025" stroke-width="0.5"/>
<path d="M28.0725 15.8555H24.7171C23.7956 15.8555 23.0132 16.5503 23.0132 17.4476C23.0132 18.3448 23.7956 19.0397 24.7171 19.0397H28.0725C28.994 19.0397 29.7764 18.3448 29.7764 17.4476C29.7764 16.5503 28.994 15.8555 28.0725 15.8555Z" fill="#FF0025" stroke="#FF0025" stroke-width="0.5"/>
<path d="M25.9833 23.945L23.6409 21.6025C22.9829 20.9445 21.9151 20.9449 21.2572 21.6028C20.5993 22.2607 20.5989 23.3285 21.2569 23.9865L23.5994 26.3289C24.2574 26.9869 25.3252 26.9866 25.9831 26.3287C26.641 25.6708 26.6413 24.603 25.9833 23.945Z" fill="#FF0025" stroke="#FF0025" stroke-width="0.5"/>
<path d="M18.1448 27.8979V24.8917C18.1448 23.9021 17.4745 23.0132 16.5527 23.0132C15.6308 23.0132 14.9606 23.9021 14.9606 24.8917V27.8979C14.9606 28.8874 15.6308 29.7764 16.5527 29.7764C17.4745 29.7764 18.1448 28.8874 18.1448 27.8979Z" fill="#FF0025" stroke="#FF0025" stroke-width="0.5"/>
<path d="M10.5185 25.856L12.3924 23.982C13.0504 23.324 13.0503 22.256 12.3924 21.5981C11.7344 20.9402 10.6664 20.94 10.0085 21.598L8.13447 23.472C7.47649 24.13 7.47662 25.198 8.13454 25.8559C8.79247 26.5138 9.86048 26.5139 10.5185 25.856Z" fill="#FF0025" stroke="#FF0025" stroke-width="0.5"/>
<path d="M6.95451 19.0396H9.15072C10.1234 19.0396 10.9868 18.3638 10.9868 17.4474C10.9868 16.5311 10.1234 15.8553 9.15072 15.8553H6.95451C5.9818 15.8553 5.11841 16.5311 5.11841 17.4474C5.11841 18.3638 5.9818 19.0396 6.95451 19.0396Z" fill="#FF0025" stroke="#FF0025" stroke-width="0.5"/>
</svg>
