<svg width="50" height="50" viewBox="0 0 50 50" fill="none" xmlns="http://www.w3.org/2000/svg">
<g clip-path="url(#clip0_487_16937)">
<path d="M17.6562 33.9375C18.8494 32.8893 19.6947 31.5024 20.0796 29.9616C20.4645 28.4208 20.3706 26.7992 19.8106 25.3131C19.2505 23.827 18.2508 22.5468 16.9447 21.6433C15.6386 20.7398 14.0882 20.2557 12.5 20.2557C10.9118 20.2557 9.36139 20.7398 8.0553 21.6433C6.74921 22.5468 5.74951 23.827 5.18943 25.3131C4.62936 26.7992 4.53551 28.4208 4.92039 29.9616C5.30528 31.5024 6.15062 32.8893 7.34375 33.9375C5.15647 34.9279 3.30073 36.5274 1.99841 38.5446C0.696086 40.5618 0.00229977 42.9114 0 45.3125L0 46.875C0 47.2894 0.16462 47.6868 0.457646 47.9799C0.750671 48.2729 1.1481 48.4375 1.5625 48.4375H6.25C6.6644 48.4375 7.06183 48.2729 7.35485 47.9799C7.64788 47.6868 7.8125 47.2894 7.8125 46.875C7.8125 46.4606 7.64788 46.0632 7.35485 45.7701C7.06183 45.4771 6.6644 45.3125 6.25 45.3125H3.125C3.125 42.8261 4.11272 40.4415 5.87087 38.6834C7.62903 36.9252 10.0136 35.9375 12.5 35.9375C14.9864 35.9375 17.371 36.9252 19.1291 38.6834C20.8873 40.4415 21.875 42.8261 21.875 45.3125H12.5C12.0856 45.3125 11.6882 45.4771 11.3951 45.7701C11.1021 46.0632 10.9375 46.4606 10.9375 46.875C10.9375 47.2894 11.1021 47.6868 11.3951 47.9799C11.6882 48.2729 12.0856 48.4375 12.5 48.4375H23.4375C23.8519 48.4375 24.2493 48.2729 24.5424 47.9799C24.8354 47.6868 25 47.2894 25 46.875V45.3125C24.9977 42.9114 24.3039 40.5618 23.0016 38.5446C21.6993 36.5274 19.8435 34.9279 17.6562 33.9375ZM7.8125 28.125C7.8125 27.1979 8.08742 26.2916 8.60249 25.5208C9.11756 24.7499 9.84964 24.1491 10.7062 23.7943C11.5627 23.4395 12.5052 23.3467 13.4145 23.5276C14.3238 23.7084 15.159 24.1549 15.8146 24.8104C16.4701 25.466 16.9166 26.3012 17.0974 27.2105C17.2783 28.1198 17.1855 29.0623 16.8307 29.9188C16.4759 30.7754 15.8751 31.5074 15.1042 32.0225C14.3334 32.5376 13.4271 32.8125 12.5 32.8125C11.2568 32.8125 10.0645 32.3186 9.18544 31.4396C8.30636 30.5605 7.8125 29.3682 7.8125 28.125ZM45.3125 1.5625H26.5625C25.3193 1.5625 24.127 2.05636 23.2479 2.93544C22.3689 3.81451 21.875 5.0068 21.875 6.25V15.625C21.875 16.8682 22.3689 18.0605 23.2479 18.9396C24.127 19.8186 25.3193 20.3125 26.5625 20.3125V23.4375C26.5625 23.7277 26.6433 24.0121 26.7959 24.259C26.9484 24.5058 27.1667 24.7053 27.4262 24.835C27.6858 24.9648 27.9763 25.0197 28.2653 24.9937C28.5543 24.9676 28.8304 24.8616 29.0625 24.6875L34.8906 20.3125H45.3125C46.5557 20.3125 47.748 19.8186 48.6271 18.9396C49.5061 18.0605 50 16.8682 50 15.625V6.25C50 5.0068 49.5061 3.81451 48.6271 2.93544C47.748 2.05636 46.5557 1.5625 45.3125 1.5625ZM46.875 15.625C46.875 16.0394 46.7104 16.4368 46.4174 16.7299C46.1243 17.0229 45.7269 17.1875 45.3125 17.1875H34.375C33.6875 17.1875 33.7812 17.1875 29.6875 20.3125V18.75C29.6875 18.3356 29.5229 17.9382 29.2299 17.6451C28.9368 17.3521 28.5394 17.1875 28.125 17.1875H26.5625C26.1481 17.1875 25.7507 17.0229 25.4576 16.7299C25.1646 16.4368 25 16.0394 25 15.625V6.25C25 5.8356 25.1646 5.43817 25.4576 5.14515C25.7507 4.85212 26.1481 4.6875 26.5625 4.6875H45.3125C45.7269 4.6875 46.1243 4.85212 46.4174 5.14515C46.7104 5.43817 46.875 5.8356 46.875 6.25V15.625Z" fill="url(#paint0_linear_487_16937)"/>
<path d="M29.6875 12.5C29.3785 12.5 29.0764 12.4084 28.8194 12.2367C28.5625 12.065 28.3622 11.821 28.2439 11.5354C28.1257 11.2499 28.0947 10.9358 28.155 10.6327C28.2153 10.3296 28.3641 10.0512 28.5826 9.83265C28.8012 9.61413 29.0796 9.46531 29.3827 9.40502C29.6858 9.34473 29.9999 9.37568 30.2854 9.49394C30.571 9.6122 30.815 9.81247 30.9867 10.0694C31.1584 10.3264 31.25 10.6285 31.25 10.9375C31.25 11.3519 31.0854 11.7493 30.7924 12.0424C30.4993 12.3354 30.1019 12.5 29.6875 12.5ZM35.9375 12.5C35.6285 12.5 35.3264 12.4084 35.0694 12.2367C34.8125 12.065 34.6122 11.821 34.4939 11.5354C34.3757 11.2499 34.3447 10.9358 34.405 10.6327C34.4653 10.3296 34.6141 10.0512 34.8326 9.83265C35.0512 9.61413 35.3296 9.46531 35.6327 9.40502C35.9358 9.34473 36.2499 9.37568 36.5354 9.49394C36.821 9.6122 37.065 9.81247 37.2367 10.0694C37.4084 10.3264 37.5 10.6285 37.5 10.9375C37.5 11.3519 37.3354 11.7493 37.0424 12.0424C36.7493 12.3354 36.3519 12.5 35.9375 12.5ZM42.1875 12.5C41.8785 12.5 41.5764 12.4084 41.3194 12.2367C41.0625 12.065 40.8622 11.821 40.7439 11.5354C40.6257 11.2499 40.5947 10.9358 40.655 10.6327C40.7153 10.3296 40.8641 10.0512 41.0826 9.83265C41.3012 9.61413 41.5796 9.46531 41.8827 9.40502C42.1858 9.34473 42.4999 9.37568 42.7854 9.49394C43.071 9.6122 43.315 9.81247 43.4867 10.0694C43.6584 10.3264 43.75 10.6285 43.75 10.9375C43.75 11.3519 43.5854 11.7493 43.2924 12.0424C42.9993 12.3354 42.6019 12.5 42.1875 12.5Z" fill="url(#paint1_linear_487_16937)"/>
</g>
<defs>
<linearGradient id="paint0_linear_487_16937" x1="-5.56743e-07" y1="25.185" x2="49.9598" y2="26.0937" gradientUnits="userSpaceOnUse">
<stop stop-color="#FDA22B"/>
<stop offset="0.453125" stop-color="#FF0025"/>
<stop offset="0.755208" stop-color="#AE1E51"/>
<stop offset="0.963542" stop-color="#69194A"/>
</linearGradient>
<linearGradient id="paint1_linear_487_16937" x1="28.125" y1="10.9498" x2="43.6299" y2="12.2717" gradientUnits="userSpaceOnUse">
<stop stop-color="#FDA22B"/>
<stop offset="0.453125" stop-color="#FF0025"/>
<stop offset="0.755208" stop-color="#AE1E51"/>
<stop offset="0.963542" stop-color="#69194A"/>
</linearGradient>
<clipPath id="clip0_487_16937">
<rect width="50" height="50" fill="white"/>
</clipPath>
</defs>
</svg>
