<svg width="28" height="30" viewBox="0 0 28 30" fill="none" xmlns="http://www.w3.org/2000/svg">
<path fill-rule="evenodd" clip-rule="evenodd" d="M27.2712 21.1841C27.2455 21.6514 27.1083 22.1061 26.8707 22.5109C26.633 22.9158 26.3017 23.2595 25.9038 23.5138L15.0281 29.6769C14.5991 29.8894 14.1258 30 13.6459 30C13.166 30 12.6927 29.8894 12.2637 29.6769L1.38062 23.5138C0.981359 23.2598 0.648294 22.9165 0.408437 22.5118C0.16858 22.107 0.0286638 21.6522 0 21.1841V8.81566C0.029283 8.3472 0.169884 7.89212 0.410411 7.48726C0.650938 7.0824 0.984625 6.73913 1.38449 6.48523L12.2692 0.323694C12.6989 0.110842 13.173 0 13.6537 0C14.1344 0 14.6085 0.110842 15.0382 0.323694L25.9054 6.48523C26.3032 6.73976 26.6345 7.08356 26.8721 7.48856C27.1098 7.89357 27.247 8.34831 27.2727 8.81566V21.183L27.2712 21.1841Z" fill="#FE932B"/>
<path d="M6.66666 10L7.99999 17.5H18.6667L20 10L16 12.5L13.3333 10L10.6667 12.5L6.66666 10Z" fill="white"/>
<path d="M7.99999 19.3C7.99999 19.725 8.29332 20 8.74666 20H17.92C18.3733 20 18.6667 19.725 18.6667 19.3V18.75H7.99999V19.3Z" fill="white"/>
</svg>
