<svg width="50" height="51" viewBox="0 0 50 51" fill="none" xmlns="http://www.w3.org/2000/svg">
<path fill-rule="evenodd" clip-rule="evenodd" d="M46.1586 14.9966C46.1586 13.7906 45.6798 12.6345 44.8283 11.783C43.9753 10.93 42.8192 10.4512 41.6132 10.4512C34.2753 10.4512 15.6177 10.4512 8.27983 10.4512C7.07528 10.4512 5.91923 10.93 5.0662 11.783C4.21317 12.6345 3.73438 13.7906 3.73438 14.9966C3.73438 20.2436 3.73438 30.9618 3.73438 36.2087C3.73438 37.4148 4.21317 38.5709 5.0662 39.4224C5.91923 40.2754 7.07528 40.7542 8.27983 40.7542C15.6177 40.7542 34.2753 40.7542 41.6132 40.7542C42.8192 40.7542 43.9753 40.2754 44.8283 39.4224C45.6798 38.5709 46.1586 37.4148 46.1586 36.2087V14.9966ZM43.1283 14.9966V36.2087C43.1283 36.6103 42.9692 36.9966 42.6859 37.28C42.4011 37.5648 42.0162 37.7239 41.6132 37.7239C34.2753 37.7239 15.6177 37.7239 8.27983 37.7239C7.87831 37.7239 7.49346 37.5648 7.20862 37.28C6.92528 36.9966 6.76468 36.6103 6.76468 36.2087C6.76468 30.9618 6.76468 20.2436 6.76468 14.9966C6.76468 14.5951 6.92528 14.2087 7.20862 13.9254C7.49346 13.6406 7.87831 13.4815 8.27983 13.4815C15.6177 13.4815 34.2753 13.4815 41.6132 13.4815C42.0162 13.4815 42.4011 13.6406 42.6859 13.9254C42.9692 14.2087 43.1283 14.5951 43.1283 14.9966ZM38.5829 31.6633H35.5526C34.7177 31.6633 34.0374 32.3421 34.0374 33.1784C34.0374 34.0148 34.7177 34.6936 35.5526 34.6936H38.5829C39.4192 34.6936 40.098 34.0148 40.098 33.1784C40.098 32.3421 39.4192 31.6633 38.5829 31.6633ZM23.4313 31.6633H11.3101C10.4753 31.6633 9.79498 32.3421 9.79498 33.1784C9.79498 34.0148 10.4753 34.6936 11.3101 34.6936H23.4313C24.2677 34.6936 24.9465 34.0148 24.9465 33.1784C24.9465 32.3421 24.2677 31.6633 23.4313 31.6633ZM38.5829 25.6027H11.3101C10.4753 25.6027 9.79498 26.2815 9.79498 27.1178C9.79498 27.9542 10.4753 28.633 11.3101 28.633H38.5829C39.4192 28.633 40.098 27.9542 40.098 27.1178C40.098 26.2815 39.4192 25.6027 38.5829 25.6027ZM18.8859 18.0269C18.8859 17.1906 18.2086 16.5118 17.3707 16.5118H11.3101C10.4738 16.5118 9.79498 17.1906 9.79498 18.0269V21.0572C9.79498 21.8936 10.4738 22.5724 11.3101 22.5724H17.3707C18.2086 22.5724 18.8859 21.8936 18.8859 21.0572V18.0269Z" fill="url(#paint0_radial_1448_27292)"/>
<defs>
<radialGradient id="paint0_radial_1448_27292" cx="0" cy="0" r="1" gradientUnits="userSpaceOnUse" gradientTransform="translate(46.1586 14.1444) rotate(149.619) scale(50.3212 55.666)">
<stop stop-color="#FDA22B"/>
<stop offset="0.298959" stop-color="#FF0025"/>
<stop offset="0.65625" stop-color="#AE1E51"/>
<stop offset="0.963542" stop-color="#69194A"/>
</radialGradient>
</defs>
</svg>
