<svg width="50" height="50" viewBox="0 0 50 50" fill="none" xmlns="http://www.w3.org/2000/svg">
<path d="M25 6.25C14.5833 6.25 6.25 14.5833 6.25 25C6.25 28.75 7.5 32.5 9.58333 35.625L6.66667 40.625C6.25 41.25 6.25 42.0833 6.66667 42.7083C7.08333 43.3333 7.5 43.75 8.33333 43.75H25C35.4167 43.75 43.75 35.4167 43.75 25C43.75 14.5833 35.4167 6.25 25 6.25ZM25 39.5833H12.0833L13.9583 36.4583C14.375 35.625 14.375 34.7917 13.75 34.1667C11.6667 31.6667 10.4167 28.3333 10.4167 25C10.4167 16.875 16.875 10.4167 25 10.4167C33.125 10.4167 39.5833 16.875 39.5833 25C39.5833 33.125 33.125 39.5833 25 39.5833Z" fill="url(#paint0_linear_487_16930)"/>
<path d="M25.2069 15.2085H24.9986C22.9152 15.2085 21.0402 16.2502 19.9986 17.9168C19.1652 18.9585 19.3736 20.2085 20.4152 20.8335C21.4569 21.4585 22.7069 21.2502 23.3319 20.2085C23.7486 19.5835 24.3736 19.3752 24.9986 19.3752H25.2069C26.2486 19.3752 27.0819 20.2085 27.0819 21.2502C27.0819 22.0835 26.4569 22.9168 25.8319 23.1252L24.3736 23.5418C23.5402 23.7502 22.9152 24.5835 22.9152 25.4168V27.0835C22.9152 28.3335 23.7486 29.1668 24.9986 29.1668C26.0402 29.1668 27.0819 28.3335 27.0819 27.2918C29.5819 26.4585 31.2486 24.1668 31.2486 21.4585C31.2486 18.1252 28.5402 15.2085 25.2069 15.2085Z" fill="url(#paint1_linear_487_16930)"/>
<path d="M25.0013 35.4167C26.1519 35.4167 27.0846 34.4839 27.0846 33.3333C27.0846 32.1827 26.1519 31.25 25.0013 31.25C23.8507 31.25 22.918 32.1827 22.918 33.3333C22.918 34.4839 23.8507 35.4167 25.0013 35.4167Z" fill="url(#paint2_linear_487_16930)"/>
<defs>
<linearGradient id="paint0_linear_487_16930" x1="6.25" y1="25.148" x2="43.7214" y2="25.7869" gradientUnits="userSpaceOnUse">
<stop stop-color="#FDA22B"/>
<stop offset="0.453125" stop-color="#FF0025"/>
<stop offset="0.755208" stop-color="#AE1E51"/>
<stop offset="0.963542" stop-color="#69194A"/>
</linearGradient>
<linearGradient id="paint1_linear_487_16930" x1="19.4844" y1="22.2428" x2="31.2406" y2="22.4117" gradientUnits="userSpaceOnUse">
<stop stop-color="#FDA22B"/>
<stop offset="0.453125" stop-color="#FF0025"/>
<stop offset="0.755208" stop-color="#AE1E51"/>
<stop offset="0.963542" stop-color="#69194A"/>
</linearGradient>
<linearGradient id="paint2_linear_487_16930" x1="22.918" y1="33.3498" x2="27.0815" y2="33.4208" gradientUnits="userSpaceOnUse">
<stop stop-color="#FDA22B"/>
<stop offset="0.453125" stop-color="#FF0025"/>
<stop offset="0.755208" stop-color="#AE1E51"/>
<stop offset="0.963542" stop-color="#69194A"/>
</linearGradient>
</defs>
</svg>
