<svg width="24" height="24" viewBox="0 0 24 24" fill="none" xmlns="http://www.w3.org/2000/svg">
<path d="M22.6959 9.32555C23.3286 9.32555 23.8419 8.8126 23.8419 8.17955C23.8419 7.54649 23.3286 7.03355 22.6959 7.03355H18.3035L19.2907 1.50499C19.4019 0.881999 18.987 0.286613 18.364 0.175451C17.7463 0.0654047 17.1457 0.478736 17.0345 1.1021L15.9753 7.03355H9.79793L10.7852 1.50499C10.8963 0.881999 10.4815 0.286613 9.85851 0.175451C9.24223 0.0654047 8.64088 0.478736 8.52896 1.1021L7.46978 7.03355H1.30372C0.671028 7.03355 0.157715 7.54649 0.157715 8.17955C0.157715 8.8126 0.671036 9.32555 1.30372 9.32555H7.06049L6.10548 14.6735H1.30372C0.671028 14.6735 0.157715 15.1865 0.157715 15.8195C0.157715 16.4526 0.671036 16.9655 1.30372 16.9655H5.69616L4.70892 22.4941C4.59775 23.1171 5.01259 23.7125 5.63558 23.8236C5.70348 23.836 5.77137 23.8419 5.83852 23.8419C6.38318 23.8419 6.86591 23.4521 6.96514 22.897L8.02432 16.9655H14.2017L13.2145 22.4941C13.1033 23.1171 13.5181 23.7125 14.1411 23.8236C14.209 23.836 14.2769 23.8419 14.3441 23.8419C14.8887 23.8419 15.3714 23.4521 15.4707 22.897L16.5299 16.9655H22.6959C23.3286 16.9655 23.8419 16.4526 23.8419 15.8195C23.8419 15.1865 23.3286 14.6735 22.6959 14.6735H16.9391L17.8941 9.32555H22.6959ZM14.611 14.6735H8.4336L9.38861 9.32555H15.566L14.611 14.6735Z" fill="#FF0025"/>
</svg>
