<svg width="16" height="16" viewBox="0 0 16 16" fill="none" xmlns="http://www.w3.org/2000/svg">
<path d="M12 5.3335H11.3333V4.66683C11.3333 3.78277 10.9821 2.93493 10.357 2.30981C9.73191 1.68469 8.88406 1.3335 8.00001 1.3335C7.11595 1.3335 6.26811 1.68469 5.64298 2.30981C5.01786 2.93493 4.66667 3.78277 4.66667 4.66683V5.3335H4.00001C3.8232 5.3335 3.65363 5.40373 3.5286 5.52876C3.40358 5.65378 3.33334 5.82335 3.33334 6.00016V11.1762C3.33207 11.5479 3.43495 11.9125 3.63031 12.2288C3.82567 12.545 4.1057 12.8002 4.43867 12.9655L7.70201 14.5968C7.79463 14.6432 7.89677 14.6673 8.00034 14.6673C8.10391 14.6673 8.20605 14.6432 8.29867 14.5968L11.562 12.9655C11.8949 12.8002 12.1748 12.5449 12.37 12.2287C12.5652 11.9124 12.668 11.5478 12.6667 11.1762V6.00016C12.6667 5.82335 12.5964 5.65378 12.4714 5.52876C12.3464 5.40373 12.1768 5.3335 12 5.3335ZM6.00001 4.66683C6.00001 4.1364 6.21072 3.62769 6.58579 3.25262C6.96087 2.87754 7.46957 2.66683 8.00001 2.66683C8.53044 2.66683 9.03915 2.87754 9.41422 3.25262C9.78929 3.62769 10 4.1364 10 4.66683V5.3335H6.00001V4.66683ZM11.3333 11.1762C11.3339 11.3001 11.2996 11.4218 11.2344 11.5273C11.1692 11.6327 11.0758 11.7178 10.9647 11.7728L8.00001 13.2548L5.03534 11.7722C4.92433 11.7172 4.83094 11.6322 4.76577 11.5269C4.70061 11.4215 4.66628 11.3 4.66667 11.1762V6.66683H11.3333V11.1762Z" fill="#999999"/>
<path d="M7.99999 8C7.82318 8 7.65361 8.07024 7.52859 8.19526C7.40357 8.32029 7.33333 8.48986 7.33333 8.66667V10C7.33333 10.1768 7.40357 10.3464 7.52859 10.4714C7.65361 10.5964 7.82318 10.6667 7.99999 10.6667C8.17681 10.6667 8.34638 10.5964 8.4714 10.4714C8.59642 10.3464 8.66666 10.1768 8.66666 10V8.66667C8.66666 8.48986 8.59642 8.32029 8.4714 8.19526C8.34638 8.07024 8.17681 8 7.99999 8Z" fill="#999999"/>
</svg>
