<svg width="36" height="38" viewBox="0 0 36 38" fill="none" xmlns="http://www.w3.org/2000/svg">
<path d="M30.8899 29.2538L30.9361 29.2276L30.9809 29.199C31.6432 28.7757 32.1971 28.2021 32.5955 27.5233C32.8176 27.1449 32.9877 26.74 33.1022 26.3196L33.2727 26.194V25.183V12.8157V12.7607L33.2697 12.7059C33.2265 11.9193 32.9955 11.1553 32.5971 10.4764L30.9696 11.4314L32.5971 10.4764C32.1989 9.79765 31.6452 9.22399 30.9831 8.80048L30.9382 8.77173L30.8918 8.74542L20.0246 2.58389L19.976 2.55634L19.926 2.53154C19.2196 2.18161 18.4416 2 17.6537 2C16.8658 2 16.0878 2.18161 15.3814 2.53154L15.332 2.55603L15.284 2.58321L4.39925 8.74474L4.35519 8.76968L4.31244 8.79682C3.64898 9.21809 3.09288 9.78923 2.69096 10.4657C2.28897 11.1424 2.05304 11.9047 2.0039 12.6909L2 12.7532V12.8157V25.1841V25.2453L2.00374 25.3064C2.05187 26.0923 2.28676 26.8545 2.68787 27.5314L4.38487 26.5257L2.68787 27.5314C3.08893 28.2081 3.64429 28.7796 4.30702 29.2012L4.35037 29.2288L4.39508 29.2541L15.2782 35.4172L15.3264 35.4445L15.376 35.469C16.0816 35.8186 16.8588 36 17.6459 36C18.433 36 19.2102 35.8186 19.9158 35.469L19.9657 35.4443L20.0141 35.4169L30.8899 29.2538Z" fill="#DBDBDB" stroke="#F2F2F2" stroke-width="4"/>
<path d="M18 19.0776C17.7717 19.075 17.548 19.1423 17.3591 19.2706C17.1702 19.3989 17.0251 19.582 16.9434 19.7952C16.8617 20.0085 16.8473 20.2416 16.9021 20.4633C16.9569 20.685 17.0783 20.8845 17.25 21.0351V22.0776C17.25 22.2766 17.329 22.4673 17.4697 22.608C17.6103 22.7486 17.8011 22.8276 18 22.8276C18.1989 22.8276 18.3897 22.7486 18.5303 22.608C18.671 22.4673 18.75 22.2766 18.75 22.0776V21.0351C18.9217 20.8845 19.0431 20.685 19.0979 20.4633C19.1527 20.2416 19.1383 20.0085 19.0566 19.7952C18.9749 19.582 18.8298 19.3989 18.6409 19.2706C18.452 19.1423 18.2283 19.075 18 19.0776ZM21.75 16.0776V14.5776C21.75 13.5831 21.3549 12.6292 20.6516 11.926C19.9484 11.2227 18.9946 10.8276 18 10.8276C17.0054 10.8276 16.0516 11.2227 15.3483 11.926C14.6451 12.6292 14.25 13.5831 14.25 14.5776V16.0776C13.6533 16.0776 13.081 16.3147 12.659 16.7366C12.2371 17.1586 12 17.7309 12 18.3276V23.5776C12 24.1744 12.2371 24.7467 12.659 25.1686C13.081 25.5906 13.6533 25.8276 14.25 25.8276H21.75C22.3467 25.8276 22.919 25.5906 23.341 25.1686C23.7629 24.7467 24 24.1744 24 23.5776V18.3276C24 17.7309 23.7629 17.1586 23.341 16.7366C22.919 16.3147 22.3467 16.0776 21.75 16.0776ZM15.75 14.5776C15.75 13.9809 15.9871 13.4086 16.409 12.9866C16.831 12.5647 17.4033 12.3276 18 12.3276C18.5967 12.3276 19.169 12.5647 19.591 12.9866C20.0129 13.4086 20.25 13.9809 20.25 14.5776V16.0776H15.75V14.5776ZM22.5 23.5776C22.5 23.7766 22.421 23.9673 22.2803 24.108C22.1397 24.2486 21.9489 24.3276 21.75 24.3276H14.25C14.0511 24.3276 13.8603 24.2486 13.7197 24.108C13.579 23.9673 13.5 23.7766 13.5 23.5776V18.3276C13.5 18.1287 13.579 17.938 13.7197 17.7973C13.8603 17.6567 14.0511 17.5776 14.25 17.5776H21.75C21.9489 17.5776 22.1397 17.6567 22.2803 17.7973C22.421 17.938 22.5 18.1287 22.5 18.3276V23.5776Z" fill="#999999"/>
</svg>
