<svg width="50" height="50" viewBox="0 0 50 50" fill="none" xmlns="http://www.w3.org/2000/svg">
<path d="M25.8944 45.7551C27.3911 44.81 28.8921 43.8694 30.3887 42.9243C31.0662 42.4979 31.7525 42.0759 32.4123 41.6188C33.9797 40.5331 35.4498 39.2979 36.756 37.9089C39.3419 35.1528 41.3079 31.8869 42.5521 28.3308C43.5661 25.4253 44 22.3615 44 19.2934C44 17.3945 44 15.4956 44 13.5966C44 13.5439 44 13.4955 44 13.4428C44 12.656 43.4465 11.9703 42.6982 11.7461C42.158 11.5834 41.6222 11.4164 41.1042 11.201C41.2459 11.2582 41.3876 11.3197 41.5292 11.3768C40.6038 10.9856 39.736 10.4845 38.9389 9.87794C39.0585 9.97025 39.1781 10.0626 39.2976 10.1549C38.5094 9.54826 37.801 8.84936 37.1899 8.06694C37.2829 8.18562 37.3759 8.3043 37.4689 8.42298C36.8578 7.63177 36.3486 6.76583 35.9546 5.84714C36.0121 5.9878 36.0741 6.12846 36.1317 6.26912C35.9988 5.95264 35.8749 5.62736 35.7686 5.30208C35.5295 4.55922 34.8609 4.00977 34.0594 4.00977C33.4572 4.00977 32.855 4.00977 32.2529 4.00977C30.8094 4.00977 29.3615 4.00977 27.918 4.00977C26.1778 4.00977 24.4377 4.00977 22.6975 4.00977C21.1876 4.00977 19.6777 4.00977 18.1678 4.00977C17.4372 4.00977 16.7022 3.98779 15.9716 4.00977C15.9627 4.00977 15.9494 4.00977 15.9406 4.00977C15.1347 4.00977 14.4705 4.55922 14.2314 5.30208C14.1251 5.63176 14.0056 5.95264 13.8683 6.26912C13.9259 6.12846 13.9879 5.9878 14.0454 5.84714C13.6514 6.76583 13.1422 7.62737 12.5311 8.42298C12.6241 8.3043 12.7171 8.18562 12.8101 8.06694C12.199 8.84936 11.4906 9.54826 10.7024 10.1549C10.822 10.0626 10.9415 9.97025 11.0611 9.87794C10.264 10.4845 9.39175 10.9856 8.47075 11.3768C8.61244 11.3197 8.75414 11.2582 8.89583 11.201C8.37334 11.4164 7.842 11.5834 7.30179 11.7461C6.55348 11.9703 6 12.656 6 13.4428C6 15.2098 6 16.9769 6 18.7439C6 19.6758 6 20.6077 6.06642 21.5395C6.20811 23.4341 6.53134 25.3242 7.06712 27.1484C8.12981 30.7704 9.9718 34.1067 12.416 36.9858C14.3155 39.2232 16.6048 41.0342 19.0844 42.5946C20.7182 43.6232 22.3521 44.6518 23.986 45.6804C24.0259 45.7067 24.0701 45.7331 24.11 45.7595C24.8937 46.2518 26.0981 45.9485 26.532 45.1265C26.9925 44.2562 26.7313 43.2496 25.8944 42.7221C25.0974 42.221 24.3004 41.7199 23.5078 41.2188C22.4894 40.577 21.4754 39.9397 20.457 39.2979C19.7441 38.8495 19.0489 38.3704 18.3759 37.8605C18.4955 37.9528 18.615 38.0451 18.7346 38.1375C17.0608 36.8495 15.5553 35.355 14.258 33.6935C14.351 33.8122 14.444 33.9308 14.5369 34.0495C13.2174 32.3484 12.1193 30.4847 11.2736 28.5066C11.3312 28.6473 11.3931 28.7879 11.4507 28.9286C10.5873 26.8934 9.99837 24.7572 9.7017 22.5681C9.72384 22.722 9.74598 22.8802 9.76369 23.0341C9.57329 21.6099 9.5423 20.1857 9.5423 18.7571C9.5423 17.3681 9.5423 15.9791 9.5423 14.5901C9.5423 14.212 9.5423 13.8384 9.5423 13.4604C9.10837 14.0274 8.67443 14.5901 8.2405 15.1571C9.76812 14.6999 11.247 14.0933 12.5444 13.1659C14.0809 12.067 15.3915 10.7131 16.3657 9.09551C16.9014 8.2076 17.3309 7.24056 17.6497 6.25594C17.0785 6.68671 16.5118 7.11748 15.9406 7.54825C16.5428 7.54825 17.145 7.54825 17.7471 7.54825C19.1906 7.54825 20.6385 7.54825 22.082 7.54825C23.8222 7.54825 25.5623 7.54825 27.3025 7.54825C28.8124 7.54825 30.3223 7.54825 31.8322 7.54825C32.5628 7.54825 33.2978 7.56583 34.0284 7.54825C34.0373 7.54825 34.0506 7.54825 34.0594 7.54825C33.4882 7.11748 32.9215 6.68671 32.3503 6.25594C33.4617 9.69772 35.9856 12.6911 39.2976 14.2384C40.0946 14.612 40.9138 14.9021 41.7595 15.1571C41.3256 14.5901 40.8916 14.0274 40.4577 13.4604C40.4577 14.445 40.4577 15.4296 40.4577 16.4142C40.4577 17.5088 40.4577 18.6033 40.4577 19.6934C40.4577 20.8099 40.3824 21.9264 40.2363 23.0341C40.2584 22.8802 40.2806 22.722 40.2983 22.5681C39.9972 24.7528 39.4083 26.8934 38.5493 28.9286C38.6069 28.7879 38.6688 28.6473 38.7264 28.5066C37.8807 30.4847 36.7826 32.3484 35.4631 34.0495C35.556 33.9308 35.649 33.8122 35.742 33.6935C34.4447 35.355 32.9392 36.8495 31.2654 38.1375C31.385 38.0451 31.5045 37.9528 31.6241 37.8605C30.6323 38.621 29.5784 39.2759 28.5246 39.9441C27.3556 40.6825 26.1867 41.4166 25.0177 42.1551C24.7166 42.3441 24.4111 42.5375 24.11 42.7265C23.7248 42.9683 23.4193 43.3331 23.2953 43.7771C23.1801 44.199 23.2333 44.7573 23.4724 45.1309C23.9772 45.9045 25.0576 46.2826 25.8944 45.7551Z" fill="url(#paint0_linear_487_16886)"/>
<path d="M15.5315 25.2441C17.1201 26.7727 18.7087 28.3014 20.302 29.8345C20.5296 30.0535 20.7572 30.2725 20.9802 30.4871C21.6909 31.171 22.8987 31.171 23.6094 30.4871C24.8357 29.3071 26.0666 28.1226 27.293 26.9426C29.2346 25.0742 31.1809 23.2014 33.1226 21.333C33.5685 20.9039 34.0191 20.4704 34.4651 20.0413C35.1525 19.3798 35.2036 18.164 34.4651 17.5114C33.7218 16.8543 32.5698 16.8052 31.8359 17.5114C30.6096 18.6914 29.3786 19.8759 28.1523 21.0559C26.2106 22.9243 24.2643 24.7971 22.3227 26.6655C21.8767 27.0946 21.4261 27.5281 20.9802 27.9572C21.8581 27.9572 22.7314 27.9572 23.6094 27.9572C22.0207 26.4286 20.4321 24.8999 18.8388 23.3668C18.6112 23.1478 18.3836 22.9287 18.1606 22.7142C17.4731 22.0527 16.2097 22.0035 15.5315 22.7142C14.8486 23.4293 14.7975 24.5334 15.5315 25.2441Z" fill="url(#paint1_linear_487_16886)"/>
<defs>
<linearGradient id="paint0_linear_487_16886" x1="6" y1="25.1658" x2="43.973" y2="25.7516" gradientUnits="userSpaceOnUse">
<stop stop-color="#FDA22B"/>
<stop offset="0.453125" stop-color="#FF0025"/>
<stop offset="0.755208" stop-color="#AE1E51"/>
<stop offset="0.963542" stop-color="#69194A"/>
</linearGradient>
<linearGradient id="paint1_linear_487_16886" x1="15" y1="24.0553" x2="34.9787" y2="24.5419" gradientUnits="userSpaceOnUse">
<stop stop-color="#FDA22B"/>
<stop offset="0.453125" stop-color="#FF0025"/>
<stop offset="0.755208" stop-color="#AE1E51"/>
<stop offset="0.963542" stop-color="#69194A"/>
</linearGradient>
</defs>
</svg>
