<svg width="30" height="30" viewBox="0 0 30 30" fill="none" xmlns="http://www.w3.org/2000/svg">
<path d="M24.375 8.125H18.125C17.7935 8.125 17.4755 8.2567 17.2411 8.49112C17.0067 8.72554 16.875 9.04348 16.875 9.375C16.875 9.70652 17.0067 10.0245 17.2411 10.2589C17.4755 10.4933 17.7935 10.625 18.125 10.625H24.375C24.7065 10.625 25.0245 10.7567 25.2589 10.9911C25.4933 11.2255 25.625 11.5435 25.625 11.875V24.025L23.6625 22.2125C23.432 21.9967 23.1283 21.8761 22.8125 21.875H11.875C11.5435 21.875 11.2255 21.7433 10.9911 21.5089C10.7567 21.2745 10.625 20.9565 10.625 20.625V18.125C10.625 17.7935 10.4933 17.4755 10.2589 17.2411C10.0245 17.0067 9.70652 16.875 9.375 16.875C9.04348 16.875 8.72554 17.0067 8.49112 17.2411C8.2567 17.4755 8.125 17.7935 8.125 18.125V20.625C8.125 21.6196 8.52009 22.5734 9.22335 23.2766C9.92661 23.9799 10.8804 24.375 11.875 24.375H22.325L26.075 27.7875C26.3055 28.0033 26.6092 28.1239 26.925 28.125C27.0964 28.1231 27.266 28.0892 27.425 28.025C27.6486 27.9274 27.8387 27.7665 27.972 27.5622C28.1053 27.3578 28.1758 27.119 28.175 26.875V11.875C28.175 11.3783 28.0764 10.8866 27.8848 10.4283C27.6933 9.97003 27.4126 9.55439 27.059 9.20551C26.7055 8.85663 26.2862 8.58146 25.8254 8.39597C25.3647 8.21048 24.8716 8.11838 24.375 8.125ZM11.875 14.375C12.2706 14.3763 12.6608 14.2837 13.0137 14.1048C13.3665 13.9259 13.6718 13.6659 13.9046 13.346C14.1374 13.0261 14.2909 12.6556 14.3526 12.2648C14.4143 11.8741 14.3823 11.4743 14.2594 11.0983C14.1365 10.7223 13.9262 10.3808 13.6456 10.1019C13.365 9.82304 13.0223 9.61472 12.6455 9.49409C12.2688 9.37346 11.8688 9.34395 11.4784 9.40799C11.088 9.47204 10.7185 9.62781 10.4 9.8625L8.2125 8.8625L10.6 7.7625C10.9774 7.99157 11.4086 8.11665 11.85 8.125C12.3445 8.125 12.8278 7.97838 13.2389 7.70367C13.65 7.42897 13.9705 7.03852 14.1597 6.58171C14.3489 6.12489 14.3984 5.62223 14.302 5.13727C14.2055 4.65232 13.9674 4.20686 13.6178 3.85723C13.2681 3.5076 12.8227 3.2695 12.3377 3.17304C11.8528 3.07657 11.3501 3.12608 10.8933 3.3153C10.4365 3.50452 10.046 3.82495 9.77133 4.23608C9.49662 4.6472 9.35 5.13055 9.35 5.625L6.975 6.7125C6.57949 6.43045 6.11038 6.26973 5.625 6.25C4.96196 6.25 4.32607 6.51339 3.85723 6.98223C3.38839 7.45107 3.125 8.08696 3.125 8.75C3.125 9.41304 3.38839 10.0489 3.85723 10.5178C4.32607 10.9866 4.96196 11.25 5.625 11.25C6.03112 11.2459 6.43012 11.1429 6.7875 10.95L9.4 12.2C9.47879 12.801 9.77322 13.3528 10.2285 13.7529C10.6838 14.153 11.2689 14.3741 11.875 14.375Z" fill="#FF0025"/>
</svg>
