<?xml version="1.0" encoding="utf-8"?>
<!-- Generator: Adobe Illustrator 24.0.0, SVG Export Plug-In . SVG Version: 6.00 Build 0)  -->
<svg version="1.1" id="Layer_1" xmlns="http://www.w3.org/2000/svg" xmlns:xlink="http://www.w3.org/1999/xlink" x="0px" y="0px"
	 viewBox="0 0 54.5 54.5" style="enable-background:new 0 0 54.5 54.5;" xml:space="preserve">
<style type="text/css">
	.st0{clip-path:url(#SVGID_2_);}
	.st1{fill:#03A9F4;}
	.st2{fill:#DBDBDB;}
</style>
<g>
	<defs>
		<rect id="SVGID_1_" x="13.6" y="13.6" width="27.2" height="27.2"/>
	</defs>
	<clipPath id="SVGID_2_">
		<use xlink:href="#SVGID_1_"  style="overflow:visible;"/>
	</clipPath>
	<g class="st0">
		<path class="st1" d="M40.9,19.6c-1,0.4-2.1,0.7-3.2,0.9c1.2-0.7,2-1.8,2.5-3.1c-1.1,0.6-2.3,1.1-3.5,1.4c-0.8-0.8-1.8-1.4-2.9-1.6
			c-1.1-0.2-2.2-0.2-3.3,0.3c-1,0.4-1.9,1.1-2.6,2.1c-0.6,0.9-1,2-1,3.1c0,0.4,0,0.9,0.1,1.3c-2.2-0.1-4.4-0.7-6.4-1.7
			c-2-1-3.7-2.4-5.1-4.1c-0.7,1.2-0.9,2.7-0.6,4.1c0.3,1.4,1.2,2.6,2.3,3.4c-0.9,0-1.7-0.3-2.5-0.7v0.1c0,1.3,0.4,2.5,1.3,3.5
			c0.8,1,1.9,1.7,3.2,1.9c-0.5,0.1-1,0.2-1.5,0.2c-0.4,0-0.7,0-1.1-0.1c0.4,1.1,1.1,2.1,2,2.8c0.9,0.7,2.1,1.1,3.2,1.1
			c-2,1.5-4.4,2.4-6.9,2.4c-0.5,0-0.9,0-1.3-0.1c2.6,1.6,5.5,2.5,8.6,2.5c10.3,0,15.9-8.5,15.9-15.9c0-0.2,0-0.5,0-0.7
			C39.2,21.8,40.1,20.8,40.9,19.6z"/>
	</g>
</g>
<path class="st2" d="M15.2,2.5h24V0h-24V2.5z M52,15.2v24h2.5v-24H52z M39.2,52h-24v2.5h24V52z M2.5,39.2v-24H0v24H2.5z M15.2,52
	c-7,0-12.8-5.7-12.8-12.8H0c0,8.4,6.8,15.2,15.2,15.2V52z M52,39.2c0,7-5.7,12.8-12.8,12.8v2.5c8.4,0,15.2-6.8,15.2-15.2H52z
	 M39.2,2.5c7,0,12.8,5.7,12.8,12.8h2.5C54.5,6.8,47.7,0,39.2,0V2.5z M15.2,0C6.8,0,0,6.8,0,15.2h2.5c0-7,5.7-12.8,12.8-12.8V0z"/>
</svg>
