<?xml version="1.0" encoding="utf-8"?>
<!-- Generator: Adobe Illustrator 24.0.0, SVG Export Plug-In . SVG Version: 6.00 Build 0)  -->
<svg version="1.1" id="Layer_1" xmlns="http://www.w3.org/2000/svg" xmlns:xlink="http://www.w3.org/1999/xlink" x="0px" y="0px"
	 viewBox="0 0 54.5 54.5" style="enable-background:new 0 0 54.5 54.5;" xml:space="preserve">
<style type="text/css">
	.st0{clip-path:url(#SVGID_2_);}
	.st1{fill:url(#SVGID_3_);}
	.st2{fill:url(#SVGID_4_);}
	.st3{fill:url(#SVGID_5_);}
	.st4{fill:#DBDBDB;}
</style>
<g>
	<defs>
		<rect id="SVGID_1_" x="13.6" y="13.6" width="27.2" height="27.2"/>
	</defs>
	<clipPath id="SVGID_2_">
		<use xlink:href="#SVGID_1_"  style="overflow:visible;"/>
	</clipPath>
	<g class="st0">
		
			<linearGradient id="SVGID_3_" gradientUnits="userSpaceOnUse" x1="16.112" y1="17.3878" x2="38.364" y2="39.6398" gradientTransform="matrix(1 0 0 -1 0 55.7518)">
			<stop  offset="0" style="stop-color:#FFC107"/>
			<stop  offset="0.507" style="stop-color:#F44336"/>
			<stop  offset="0.99" style="stop-color:#9C27B0"/>
		</linearGradient>
		<path class="st1" d="M32.3,13.6H22.1c-2.3,0-4.4,0.9-6,2.5s-2.5,3.8-2.5,6v10.2c0,2.3,0.9,4.4,2.5,6s3.8,2.5,6,2.5h10.2
			c2.3,0,4.4-0.9,6-2.5s2.5-3.8,2.5-6V22.1c0-2.3-0.9-4.4-2.5-6S34.6,13.6,32.3,13.6L32.3,13.6z M38.3,32.3c0,3.3-2.7,6-6,6H22.1
			c-3.3,0-6-2.7-6-6V22.1c0-3.3,2.7-6,6-6h10.2c3.3,0,6,2.7,6,6V32.3z"/>
		
			<linearGradient id="SVGID_4_" gradientUnits="userSpaceOnUse" x1="22.423" y1="23.6987" x2="32.0531" y2="33.3288" gradientTransform="matrix(1 0 0 -1 0 55.7518)">
			<stop  offset="0" style="stop-color:#FFC107"/>
			<stop  offset="0.507" style="stop-color:#F44336"/>
			<stop  offset="0.99" style="stop-color:#9C27B0"/>
		</linearGradient>
		<path class="st2" d="M27.2,20.4c-1.8,0-3.5,0.7-4.8,2s-2,3-2,4.8s0.7,3.5,2,4.8s3,2,4.8,2s3.5-0.7,4.8-2s2-3,2-4.8s-0.7-3.5-2-4.8
			S29,20.4,27.2,20.4z M27.2,31.5c-1.1,0-2.2-0.5-3-1.2c-0.8-0.8-1.2-1.9-1.2-3c0-2.3,1.9-4.3,4.3-4.3c2.3,0,4.3,1.9,4.3,4.3
			C31.5,29.6,29.6,31.5,27.2,31.5z"/>
		
			<linearGradient id="SVGID_5_" gradientUnits="userSpaceOnUse" x1="33.9165" y1="35.1922" x2="35.1997" y2="36.4754" gradientTransform="matrix(1 0 0 -1 0 55.7518)">
			<stop  offset="0" style="stop-color:#FFC107"/>
			<stop  offset="0.507" style="stop-color:#F44336"/>
			<stop  offset="0.99" style="stop-color:#9C27B0"/>
		</linearGradient>
		<path class="st3" d="M34.6,20.8c0.5,0,0.9-0.4,0.9-0.9c0-0.5-0.4-0.9-0.9-0.9c-0.5,0-0.9,0.4-0.9,0.9
			C33.7,20.4,34.1,20.8,34.6,20.8z"/>
	</g>
</g>
<path class="st4" d="M15.2,2.5h24V0h-24V2.5z M52,15.2v24h2.5v-24H52z M39.2,52h-24v2.5h24V52z M2.5,39.2v-24H0v24H2.5z M15.2,52
	c-7,0-12.8-5.7-12.8-12.8H0c0,8.4,6.8,15.2,15.2,15.2V52z M52,39.2c0,7-5.7,12.8-12.8,12.8v2.5c8.4,0,15.2-6.8,15.2-15.2H52z
	 M39.2,2.5c7,0,12.8,5.7,12.8,12.8h2.5C54.5,6.8,47.7,0,39.2,0V2.5z M15.2,0C6.8,0,0,6.8,0,15.2h2.5c0-7,5.7-12.8,12.8-12.8V0z"/>
</svg>
