<svg width="13" height="15" viewBox="0 0 13 15" fill="none" xmlns="http://www.w3.org/2000/svg">
<path d="M8.33334 0.666504H5.66667C5.30001 0.666504 5.00001 0.966504 5.00001 1.33317C5.00001 1.69984 5.30001 1.99984 5.66667 1.99984H8.33334C8.70001 1.99984 9.00001 1.69984 9.00001 1.33317C9.00001 0.966504 8.70001 0.666504 8.33334 0.666504ZM7.00001 9.33317C7.36667 9.33317 7.66667 9.03317 7.66667 8.6665V5.99984C7.66667 5.63317 7.36667 5.33317 7.00001 5.33317C6.63334 5.33317 6.33334 5.63317 6.33334 5.99984V8.6665C6.33334 9.03317 6.63334 9.33317 7.00001 9.33317ZM11.6867 4.9265L12.1867 4.4265C12.44 4.17317 12.4467 3.75317 12.1867 3.49317L12.18 3.4865C11.92 3.2265 11.5067 3.23317 11.2467 3.4865L10.7467 3.9865C9.71334 3.15984 8.41334 2.6665 7.00001 2.6665C3.80001 2.6665 1.08001 5.3065 1.00001 8.5065C0.913339 11.8932 3.62667 14.6665 7.00001 14.6665C10.32 14.6665 13 11.9798 13 8.6665C13 7.25317 12.5067 5.95317 11.6867 4.9265ZM7.00001 13.3332C4.42001 13.3332 2.33334 11.2465 2.33334 8.6665C2.33334 6.0865 4.42001 3.99984 7.00001 3.99984C9.58001 3.99984 11.6667 6.0865 11.6667 8.6665C11.6667 11.2465 9.58001 13.3332 7.00001 13.3332Z" fill="#999999"/>
</svg>
