<svg width="21" height="15" viewBox="0 0 21 15" fill="none" xmlns="http://www.w3.org/2000/svg">
<path d="M19 2.65C18.6962 2.5132 18.3588 2.4687 18.0299 2.52204C17.701 2.57537 17.395 2.72419 17.15 2.95L15 4.95V3.5C15 2.70435 14.6839 1.94129 14.1213 1.37868C13.5587 0.816071 12.7956 0.5 12 0.5H3C2.20435 0.5 1.44129 0.816071 0.87868 1.37868C0.316071 1.94129 0 2.70435 0 3.5V11.5C0 12.2957 0.316071 13.0587 0.87868 13.6213C1.44129 14.1839 2.20435 14.5 3 14.5H12C12.7956 14.5 13.5587 14.1839 14.1213 13.6213C14.6839 13.0587 15 12.2957 15 11.5V10.05L17.16 12.05C17.478 12.3378 17.8911 12.4981 18.32 12.5C18.558 12.4994 18.7932 12.4483 19.01 12.35C19.3049 12.2307 19.5576 12.0262 19.7357 11.7625C19.9139 11.4989 20.0094 11.1882 20.01 10.87V4.13C20.0086 3.81069 19.9116 3.49911 19.7316 3.23536C19.5516 2.97161 19.2968 2.76774 19 2.65ZM13 11.5C13 11.7652 12.8946 12.0196 12.7071 12.2071C12.5196 12.3946 12.2652 12.5 12 12.5H3C2.73478 12.5 2.48043 12.3946 2.29289 12.2071C2.10536 12.0196 2 11.7652 2 11.5V3.5C2 3.23478 2.10536 2.98043 2.29289 2.79289C2.48043 2.60536 2.73478 2.5 3 2.5H12C12.2652 2.5 12.5196 2.60536 12.7071 2.79289C12.8946 2.98043 13 3.23478 13 3.5V11.5ZM18 10.1L15.19 7.5L18 4.9V10.1Z" fill="#333333"/>
</svg>
