<svg width="50" height="50" viewBox="0 0 50 50" fill="none" xmlns="http://www.w3.org/2000/svg">
<path fill-rule="evenodd" clip-rule="evenodd" d="M37.2626 12.7386V10.7861C37.2516 10.0118 37.0901 9.24747 36.7874 8.53699C36.4847 7.82651 36.0469 7.18393 35.4991 6.64627C34.9513 6.1086 34.3044 5.68646 33.5955 5.40415C32.8867 5.12184 32.1299 4.98493 31.3688 5.00131H9.49503C8.06929 4.97816 6.69275 5.53131 5.66753 6.53936C4.68803 7.50245 4.10566 8.8056 4.03336 10.1846C4.01366 10.2842 4.00352 10.3862 4.00352 10.4893V38.3747C3.94774 40.0723 4.55606 41.723 5.69508 42.965C6.8341 44.2069 8.41085 44.9388 10.0796 45H36.3646C38.029 44.9324 39.5996 44.1978 40.7334 42.9565C41.8672 41.7152 42.4722 40.0681 42.4164 38.3747V36.7154C43.295 36.6102 44.1213 36.2149 44.7641 35.5822C45.5364 34.8222 45.9808 33.7818 46 32.6889V26.2738C46.0016 25.7333 45.8985 25.1977 45.6966 24.6977C45.4947 24.1977 45.198 23.7431 44.8233 23.3597C44.4487 22.9763 44.0035 22.6718 43.5131 22.4634C43.1702 22.3177 42.8098 22.221 42.4424 22.1755V19.2654C42.4981 17.5679 41.8898 15.9171 40.7508 14.6752C39.8182 13.6583 38.5923 12.9834 37.2626 12.7386ZM35.7375 15.7303H23.2801C23.1566 15.7628 23.0286 15.7797 22.8988 15.7797H9.49503C8.78705 15.7912 8.08379 15.6604 7.42555 15.395C7.29519 15.3424 7.1671 15.2848 7.04155 15.2222V38.3747C6.98463 39.249 7.26927 40.1108 7.83361 40.7728C8.39794 41.4347 9.19635 41.8434 10.0553 41.9099H36.3646C37.2235 41.8434 38.0219 41.4347 38.5863 40.7728C39.1506 40.1108 39.4352 39.249 39.3783 38.3747V36.7432H33.459C31.814 36.7763 30.2234 36.1441 29.0363 34.9854C27.8493 33.8266 27.1628 32.236 27.1277 30.5629V28.3257C27.1628 26.6526 27.8493 25.062 29.0363 23.9032C30.2234 22.7445 31.814 22.1123 33.459 22.1454H39.38V19.2777C39.4371 18.4022 39.1528 17.539 38.5887 16.8751C38.0247 16.2111 37.2263 15.7998 36.3663 15.7303H35.7497C35.7476 15.7303 35.7456 15.7303 35.7436 15.7303C35.7416 15.7303 35.7395 15.7303 35.7375 15.7303ZM34.2246 12.6401V10.7861C34.1961 10.0527 33.8837 9.36051 33.3556 8.86039C32.8275 8.36028 32.1265 8.09277 31.4053 8.11617H9.53149C8.91138 8.09276 8.30742 8.32026 7.85188 8.74886C7.39634 9.17746 7.12636 9.77222 7.10107 10.4029C7.12636 11.0335 7.39634 11.6283 7.85188 12.0569C8.30742 12.4855 8.91138 12.713 9.53149 12.6896H9.70002C9.8235 12.657 9.95153 12.6401 10.0813 12.6401H34.2246ZM41.0896 33.7025H41.8804C42.1458 33.7025 42.4005 33.5961 42.5894 33.4064C42.7782 33.2167 42.8858 32.9589 42.889 32.6889V26.2738C42.8817 26.0271 42.7817 25.7926 42.6095 25.6187C42.5184 25.5218 42.409 25.4445 42.288 25.3915C42.1669 25.3384 42.0366 25.3106 41.9047 25.3097L33.459 25.2479C32.6217 25.2144 31.8054 25.5192 31.1883 26.0959C30.5713 26.6726 30.2037 27.4742 30.1658 28.3257V30.6247C30.2037 31.4762 30.5713 32.2778 31.1883 32.8545C31.8054 33.4312 32.6217 33.736 33.459 33.7025H40.7051C40.7685 33.6943 40.8327 33.6901 40.8973 33.6901C40.962 33.6901 41.0262 33.6943 41.0896 33.7025Z" fill="url(#paint0_linear_487_16902)"/>
<path d="M34.5 31C35.3284 31 36 30.3284 36 29.5C36 28.6716 35.3284 28 34.5 28C33.6716 28 33 28.6716 33 29.5C33 30.3284 33.6716 31 34.5 31Z" fill="url(#paint1_linear_487_16902)"/>
<defs>
<linearGradient id="paint0_linear_487_16902" x1="4" y1="25.1579" x2="45.9667" y2="25.9092" gradientUnits="userSpaceOnUse">
<stop stop-color="#FDA22B"/>
<stop offset="0.453125" stop-color="#FF0025"/>
<stop offset="0.755208" stop-color="#AE1E51"/>
<stop offset="0.963542" stop-color="#69194A"/>
</linearGradient>
<linearGradient id="paint1_linear_487_16902" x1="33" y1="29.5118" x2="35.9977" y2="29.563" gradientUnits="userSpaceOnUse">
<stop stop-color="#FDA22B"/>
<stop offset="0.453125" stop-color="#FF0025"/>
<stop offset="0.755208" stop-color="#AE1E51"/>
<stop offset="0.963542" stop-color="#69194A"/>
</linearGradient>
</defs>
</svg>
